HIERARCHY
ROOT Hips
{
 OFFSET 0.000000 0.000000 0.000000
 CHANNELS 6 Xposition Yposition Zposition Yrotation Xrotation Zrotation
 JOINT Chest
 {
  OFFSET 0.000000 10.354800 0.006500
  CHANNELS 3 Yrotation Xrotation Zrotation
  JOINT Chest2
  {
   OFFSET 0.000000 10.435800 -0.013200
   CHANNELS 3 Yrotation Xrotation Zrotation
   JOINT Chest3
   {
    OFFSET 0.000000 10.393700 0.000000
    CHANNELS 3 Yrotation Xrotation Zrotation
    JOINT Chest4
    {
     OFFSET 0.000000 10.383100 0.000000
     CHANNELS 3 Yrotation Xrotation Zrotation
     JOINT Neck
     {
      OFFSET 0.000000 15.694000 0.000000
      CHANNELS 3 Yrotation Xrotation Zrotation
      JOINT Head
      {
       OFFSET 0.000000 9.711000 -0.028000
       CHANNELS 3 Yrotation Xrotation Zrotation
       End Site
       {
        OFFSET 0.000000 18.578700 -0.014800
       }
      }
     }
     JOINT RightCollar
     {
      OFFSET -3.157200 10.367500 0.000000
      CHANNELS 3 Yrotation Xrotation Zrotation
      JOINT RightShoulder
      {
       OFFSET -14.482500 0.000000 0.000000
       CHANNELS 3 Yrotation Xrotation Zrotation
       JOINT RightElbow
       {
        OFFSET 0.000000 -31.707800 0.000000
        CHANNELS 3 Yrotation Xrotation Zrotation
        JOINT RightWrist
        {
         OFFSET 0.000000 -25.659300 0.000000
         CHANNELS 3 Yrotation Xrotation Zrotation
         End Site
         {
          OFFSET 0.000000 -18.994300 0.000000
         }
        }
       }
      }
     }
     JOINT LeftCollar
     {
      OFFSET 3.157200 10.367500 0.000000
      CHANNELS 3 Yrotation Xrotation Zrotation
      JOINT LeftShoulder
      {
       OFFSET 14.482500 0.000000 0.000000
       CHANNELS 3 Yrotation Xrotation Zrotation
       JOINT LeftElbow
       {
        OFFSET 0.000000 -31.707800 0.000000
        CHANNELS 3 Yrotation Xrotation Zrotation
        JOINT LeftWrist
        {
         OFFSET 0.000000 -25.659300 0.000000
         CHANNELS 3 Yrotation Xrotation Zrotation
         End Site
         {
          OFFSET 0.000000 -18.994300 0.000000
         }
        }
       }
      }
     }
    }
   }
  }
 }
 JOINT RightHip
 {
  OFFSET -8.365600 -0.032100 -0.003200
  CHANNELS 3 Yrotation Xrotation Zrotation
  JOINT RightKnee
  {
   OFFSET 0.000000 -43.980000 0.003100
   CHANNELS 3 Yrotation Xrotation Zrotation
   JOINT RightAnkle
   {
    OFFSET 0.000000 -42.882800 0.005200
    CHANNELS 3 Yrotation Xrotation Zrotation
    JOINT RightToe
    {
     OFFSET 0.000000 -4.915500 10.826300
     CHANNELS 3 Yrotation Xrotation Zrotation
     End Site
     {
      OFFSET 0.000000 -1.517500 6.175900
     }
    }
   }
  }
 }
 JOINT LeftHip
 {
  OFFSET 8.365600 -0.032100 -0.003200
  CHANNELS 3 Yrotation Xrotation Zrotation
  JOINT LeftKnee
  {
   OFFSET 0.000000 -43.980000 0.003100
   CHANNELS 3 Yrotation Xrotation Zrotation
   JOINT LeftAnkle
   {
    OFFSET 0.000000 -42.882800 0.005200
    CHANNELS 3 Yrotation Xrotation Zrotation
    JOINT LeftToe
    {
     OFFSET 0.000000 -4.915500 10.826300
     CHANNELS 3 Yrotation Xrotation Zrotation
     End Site
     {
      OFFSET 0.000000 -1.517500 6.175900
     }
    }
   }
  }
 }
}
MOTION
Frames: 13
Frame Time: 0.008333
0.000000 91.618600 0.000000 0.000000 -5.767877 0.000000 0.000000 11.653817 0.000000 0.000000 -5.885947 0.000000 0.000000 -0.000000 0.000000 0.000000 -0.000000 0.000000 0.000000 12.528835 0.000000 0.000000 0.711642 0.000000 0.000000 -0.000000 0.000000 0.000000 0.000000 -90.000000 0.000000 -2.309062 0.000000 0.000000 2.309062 0.000000 0.000000 -0.000000 0.000000 0.000000 -0.000000 90.000000 0.000000 -2.309062 0.000000 0.000000 2.309062 0.000000 0.000000 8.520406 0.000000 0.000000 1.905762 0.000000 -0.000000 -4.658285 0.000000 0.000000 -0.000000 0.000000 0.000000 8.520406 0.000000 0.000000 1.905762 0.000000 -0.000000 -4.658285 0.000000 0.000000 -0.000000 0.000000
0.932931 127.296202 43.665579 176.771279 -36.767737 -3.230738 -2.680697 11.122860 2.276534 -0.197258 0.828502 0.180498 -0.344130 1.334233 0.301708 -2.459380 10.151106 2.108484 -8.587703 22.872306 0.128364 -9.502259 -0.710871 2.114997 2.443293 6.049879 -8.804166 -21.527417 -28.440942 -21.103435 -116.206489 -38.924329 145.726690 -34.807955 -21.234820 -31.349617 2.865965 7.404703 4.037259 39.801138 -28.557279 -0.727164 141.030165 -35.936482 -169.507923 32.058398 -16.235168 29.624432 6.961247 -45.991835 4.872880 -107.989517 81.414924 -101.922820 2.859227 -10.446912 -16.058898 0.022696 0.006794 0.010305 -14.913906 -45.078790 7.788495 64.688016 80.407398 57.220211 -7.027736 -4.276898 0.175697 -0.001737 0.019504 -0.000789
0.933686 127.295918 43.672368 176.756075 -36.794470 -3.237813 -2.669955 11.100101 2.288412 -0.201921 0.782118 0.177882 -0.340603 1.384754 0.302487 -2.455179 10.180144 2.109704 -8.471057 22.858605 0.160187 -9.376908 -0.718845 2.114304 2.443472 6.065395 -8.785486 -21.444747 -28.360197 -21.078073 -116.149957 -38.897890 145.750035 -34.818380 -21.131553 -31.305816 2.852912 7.416953 4.032163 39.768113 -28.483177 -0.797783 141.123766 -35.997992 -169.514412 32.028963 -16.237833 29.664748 6.965093 -45.967682 4.878042 -107.818024 81.399751 -101.744567 2.906916 -10.392137 -16.056701 0.011731 0.005903 0.005327 -14.938181 -45.047448 7.822511 64.632234 80.412926 57.148496 -7.005700 -4.260318 0.173177 0.000689 0.010254 0.000313
0.935033 127.302683 43.670730 176.753758 -36.890231 -3.254588 -2.662693 11.171563 2.300926 -0.202685 0.757289 0.177778 -0.342529 1.390942 0.304229 -2.454574 10.190723 2.112842 -8.329272 22.861852 0.185251 -9.222860 -0.723873 2.107694 2.440796 6.090937 -8.753162 -21.343084 -28.278214 -21.092843 -116.063709 -38.865664 145.763691 -34.823782 -21.040651 -31.254936 2.840606 7.446456 4.021123 39.725944 -28.409844 -0.851346 141.217086 -36.043605 -169.525542 31.991119 -16.230803 29.689931 6.952163 -45.871976 4.897559 -107.677213 81.385057 -101.591652 2.912361 -10.331232 -16.045946 0.009206 0.007362 0.004180 -14.938372 -44.948835 7.822081 64.561154 80.416933 57.072954 -7.006808 -4.246456 0.171780 -0.001703 0.004369 -0.000773
0.932950 127.300845 43.680743 176.754116 -36.910852 -3.258346 -2.663814 11.166826 2.301556 -0.201888 0.757126 0.178811 -0.344974 1.370090 0.303827 -2.452046 10.201316 2.118873 -8.167243 22.868872 0.211147 -9.042508 -0.724010 2.097209 2.425772 6.082507 -8.674702 -21.182530 -28.173767 -21.189199 -115.951759 -38.834882 145.770044 -34.832454 -20.986095 -31.215894 2.810300 7.478195 4.006736 39.711711 -28.349848 -0.875809 141.285661 -36.051478 -169.560320 31.959802 -16.223691 29.750968 6.952708 -45.849636 4.887811 -107.582979 81.363886 -101.498191 2.939509 -10.321953 -16.034373 0.006535 0.013914 0.002968 -14.939449 -44.929526 7.820976 64.476974 80.418685 56.989147 -6.992047 -4.236443 0.175407 -0.000980 0.007040 -0.000445
0.930937 127.303384 43.685135 176.762387 -36.973730 -3.265575 -2.668407 11.174976 2.300395 -0.203642 0.744095 0.177717 -0.346453 1.333937 0.305406 -2.456026 10.214863 2.126102 -7.991127 22.931305 0.222603 -8.840945 -0.716441 2.083867 2.421481 6.154650 -8.655049 -21.047029 -28.063486 -21.234742 -115.822578 -38.803609 145.775154 -34.845162 -20.967475 -31.206712 2.781903 7.565889 3.992460 39.713657 -28.285650 -0.900328 141.290478 -36.069925 -169.524693 31.943480 -16.216439 29.728632 6.956278 -45.785255 4.869244 -107.638207 81.380168 -101.541086 2.941967 -10.327169 -16.030727 0.000843 0.016022 0.000383 -14.931265 -44.869621 7.802830 64.409450 80.424471 56.921895 -6.995438 -4.225814 0.179639 -0.002491 0.005284 -0.001131
0.930392 127.308377 43.686520 176.769627 -37.058914 -3.279064 -2.673043 11.163480 2.301008 -0.203144 0.772457 0.179119 -0.347208 1.375864 0.306435 -2.458610 10.203539 2.128212 -7.795662 22.947558 0.253369 -8.627326 -0.699650 2.068551 2.421570 6.187261 -8.647539 -20.905015 -27.952772 -21.275122 -115.678001 -38.769749 145.774685 -34.854288 -20.962753 -31.226239 2.710177 7.604135 3.970132 39.765394 -28.222864 -0.916269 141.259346 -36.070538 -169.499750 31.943915 -16.214935 29.693180 6.936234 -45.701498 4.888719 -107.696394 81.387285 -101.599974 2.936309 -10.335494 -16.025967 -0.002290 0.013162 -0.001040 -14.915204 -44.783901 7.781000 64.347842 80.429140 56.863890 -6.984829 -4.220162 0.186019 -0.001773 0.002427 -0.000805
0.928434 127.307934 43.694723 176.774831 -37.094251 -3.285050 -2.674614 11.130124 2.299766 -0.203547 0.787100 0.180013 -0.350385 1.402027 0.306827 -2.459433 10.178512 2.131934 -7.601064 22.983080 0.281632 -8.413120 -0.674739 2.054065 2.418610 6.234610 -8.626124 -20.731620 -27.841782 -21.349105 -115.528098 -38.742212 145.766420 -34.862848 -20.949249 -31.248793 2.673980 7.659335 3.957364 39.784968 -28.155115 -0.939582 141.204517 -36.043849 -169.495967 31.959108 -16.211210 29.659958 6.926427 -45.667713 4.894880 -107.790983 81.396903 -101.692733 2.920879 -10.371638 -16.023674 -0.002335 0.013648 -0.001060 -14.907390 -44.749190 7.770656 64.304018 80.432326 56.823317 -6.981066 -4.218803 0.185306 0.000058 0.005061 0.000026
0.928593 127.314058 43.694233 176.793798 -37.187037 -3.307637 -2.681812 11.172032 2.303831 -0.203827 0.787001 0.180221 -0.347986 1.361320 0.308042 -2.466711 10.204362 2.132739 -7.417219 23.036078 0.307643 -8.209665 -0.642834 2.042756 2.420963 6.306935 -8.609580 -20.551824 -27.729157 -21.422650 -115.388713 -38.729782 145.759382 -34.870105 -20.913939 -31.266513 2.646396 7.729930 3.949272 39.802535 -28.080980 -0.972355 141.121027 -36.006277 -169.496662 31.981839 -16.205122 29.614509 6.893752 -45.572366 4.923265 -107.915695 81.436378 -101.807045 2.889857 -10.425909 -16.041251 -0.001642 0.002254 -0.000745 -14.898822 -44.655499 7.746886 64.300092 80.433444 56.823189 -6.974939 -4.216545 0.186932 0.000073 0.002210 0.000033
0.927256 127.314122 43.701245 176.801089 -37.223295 -3.316432 -2.684577 11.170877 2.303478 -0.204484 0.799259 0.181379 -0.348586 1.373755 0.309128 -2.471029 10.163228 2.133309 -7.250316 23.079075 0.336060 -8.028123 -0.605701 2.034751 2.428249 6.357156 -8.590690 -20.357197 -27.600010 -21.506246 -115.261043 -38.732405 145.753737 -34.868390 -20.849634 -31.284115 2.639625 7.785869 3.948274 39.813365 -27.995727 -1.021251 141.018402 -35.966169 -169.508938 32.007521 -16.199325 29.560052 6.873657 -45.534859 4.936016 -107.972185 81.469273 -101.860576 2.867560 -10.446651 -16.052930 -0.000903 0.002836 -0.000410 -14.887543 -44.621492 7.732868 64.299146 80.434836 56.828673 -6.992832 -4.217776 0.191832 -0.003152 0.002857 -0.001431
0.925275 127.311928 43.710864 176.801289 -37.237181 -3.317348 -2.683858 11.172358 2.302499 -0.204098 0.786598 0.180297 -0.348199 1.348010 0.307128 -2.477569 10.160390 2.136540 -7.112560 23.121614 0.361517 -7.879181 -0.566291 2.030368 2.431485 6.411383 -8.579278 -20.158852 -27.469869 -21.585653 -115.130891 -38.741794 145.743314 -34.855039 -20.748678 -31.296847 2.614971 7.844802 3.937166 39.849445 -27.905266 -1.082925 140.908912 -35.927050 -169.535330 32.036733 -16.193307 29.493321 6.867708 -45.521139 4.942937 -107.999626 81.488693 -101.885536 2.846853 -10.479797 -16.063432 -0.000702 0.002381 -0.000319 -14.875698 -44.610698 7.720872 64.313921 80.433019 56.846998 -6.986815 -4.219314 0.196036 -0.004607 0.004965 -0.002092
0.924642 127.312491 43.716765 176.806037 -37.273733 -3.326511 -2.688058 11.162597 2.304104 -0.204402 0.785858 0.180306 -0.348838 1.346759 0.307382 -2.478525 10.154770 2.138303 -7.012593 23.161853 0.382666 -7.772130 -0.526125 2.030153 2.431649 6.465449 -8.570445 -19.969855 -27.337325 -21.661336 -114.987665 -38.757285 145.729833 -34.830078 -20.607776 -31.303091 2.608098 7.893096 3.926709 39.864770 -27.798384 -1.151275 140.799236 -35.890199 -169.569532 32.066661 -16.177450 29.405112 6.860445 -45.485756 4.956563 -108.008203 81.492258 -101.888125 2.848622 -10.502191 -16.070790 -0.002458 -0.001052 -0.001116 -14.841826 -44.578431 7.696229 64.328110 80.431994 56.882948 -6.990055 -4.219800 0.199217 -0.003111 0.004343 -0.001413
0.925205 127.316454 43.718222 176.817894 -37.338490 -3.344551 -2.691324 11.136442 2.308624 -0.207528 0.832597 0.181378 -0.346255 1.294534 0.306629 -2.483151 10.195029 2.139278 -6.960269 23.205356 0.393406 -7.706579 -0.490758 2.035685 2.426263 6.519199 -8.566473 -19.794409 -27.201090 -21.724393 -114.828183 -38.787289 145.713997 -34.795456 -20.434160 -31.302658 2.621499 7.938816 3.918664 39.854984 -27.682529 -1.225996 140.691546 -35.858899 -169.601212 32.083439 -16.148025 29.290620 6.844080 -45.421379 4.982399 -108.021631 81.507988 -101.890484 2.840092 -10.511615 -16.089132 -0.002045 -0.009214 -0.000928 -14.825391 -44.513374 7.680127 64.364419 80.429242 56.927746 -6.997520 -4.220034 0.203145 -0.002177 0.001811 -0.000988
